<svg xmlns="http://www.w3.org/2000/svg" width="1440" height="900" viewBox="0 0 1440 900">
  <rect width="1440" height="900" fill="#f7f8fb"/>
  <rect x="0" y="0" width="1440" height="72" fill="#ffffff" stroke="#dce3ee"/>
  <rect x="56" y="20" width="34" height="34" rx="8" fill="#18212f"/>
  <path d="M73 28l3 9 9 3-9 3-3 9-3-9-9-3 9-3 3-9z" fill="#fff"/>
  <text x="104" y="43" font-family="Inter,Arial,sans-serif" font-size="19" font-weight="700" fill="#18212f">ToolForge AI</text>
  <text x="1110" y="43" font-family="Inter,Arial,sans-serif" font-size="15" fill="#617086">Tools</text>
  <text x="1170" y="43" font-family="Inter,Arial,sans-serif" font-size="15" fill="#617086">Admin</text>
  <text x="1240" y="43" font-family="Inter,Arial,sans-serif" font-size="15" fill="#617086">EN</text>
  <text x="1282" y="43" font-family="Inter,Arial,sans-serif" font-size="15" fill="#617086">中文</text>

  <text x="96" y="140" font-family="Inter,Arial,sans-serif" font-size="13" font-weight="800" fill="#0d9488">TOOL PAGE CMS</text>
  <text x="96" y="186" font-family="Inter,Arial,sans-serif" font-size="42" font-weight="800" fill="#18212f">Admin workspace</text>
  <text x="96" y="218" font-family="Inter,Arial,sans-serif" font-size="16" fill="#617086">Manage SEO-ready AI tools, keyword generation, publishing, and runs.</text>

  <rect x="96" y="260" width="1248" height="112" rx="8" fill="#fff" stroke="#dce3ee"/>
  <rect x="120" y="284" width="560" height="44" rx="8" fill="#fff" stroke="#dce3ee"/>
  <text x="140" y="312" font-family="Inter,Arial,sans-serif" font-size="15" fill="#617086">Search name, slug, or category</text>
  <rect x="700" y="284" width="150" height="44" rx="8" fill="#fff" stroke="#dce3ee"/>
  <text x="728" y="312" font-family="Inter,Arial,sans-serif" font-size="15" fill="#18212f">draft</text>
  <rect x="868" y="284" width="180" height="44" rx="8" fill="#fff" stroke="#dce3ee"/>
  <text x="898" y="312" font-family="Inter,Arial,sans-serif" font-size="15" fill="#18212f">all categories</text>
  <rect x="1120" y="284" width="176" height="44" rx="8" fill="#146ef5"/>
  <text x="1160" y="312" font-family="Inter,Arial,sans-serif" font-size="15" font-weight="700" fill="#fff">New tool</text>

  <rect x="96" y="396" width="1248" height="260" rx="8" fill="#fff" stroke="#dce3ee"/>
  <text x="120" y="432" font-family="Inter,Arial,sans-serif" font-size="24" font-weight="800" fill="#18212f">Tools</text>
  <g font-family="Inter,Arial,sans-serif" font-size="14">
    <text x="140" y="480" fill="#617086">Name</text>
    <text x="520" y="480" fill="#617086">SEO</text>
    <text x="640" y="480" fill="#617086">Status</text>
    <text x="780" y="480" fill="#617086">Blockers</text>
  </g>
  <line x1="120" y1="500" x2="1320" y2="500" stroke="#dce3ee"/>
  <text x="140" y="540" font-family="Inter,Arial,sans-serif" font-size="17" font-weight="700" fill="#18212f">AI Text Summarizer</text>
  <text x="140" y="566" font-family="Inter,Arial,sans-serif" font-size="14" fill="#617086">/ai-text-summarizer · Writing</text>
  <rect x="520" y="522" width="70" height="32" rx="8" fill="#f0fdfa"/>
  <text x="540" y="543" font-family="Inter,Arial,sans-serif" font-size="14" font-weight="800" fill="#0d9488">89%</text>
  <rect x="640" y="522" width="90" height="32" rx="8" fill="#eef7f6"/>
  <text x="660" y="543" font-family="Inter,Arial,sans-serif" font-size="13" font-weight="700" fill="#0f766e">published</text>
  <text x="780" y="543" font-family="Inter,Arial,sans-serif" font-size="14" fill="#617086">Ready</text>
  <rect x="1210" y="518" width="72" height="38" rx="8" fill="#fff" stroke="#dce3ee"/>
  <text x="1232" y="542" font-family="Inter,Arial,sans-serif" font-size="14" font-weight="700" fill="#18212f">Edit</text>

  <line x1="120" y1="586" x2="1320" y2="586" stroke="#dce3ee"/>
  <text x="140" y="626" font-family="Inter,Arial,sans-serif" font-size="17" font-weight="700" fill="#18212f">AI Title Generator</text>
  <text x="140" y="652" font-family="Inter,Arial,sans-serif" font-size="14" fill="#617086">/ai-title-generator · Marketing</text>
  <rect x="520" y="608" width="70" height="32" rx="8" fill="#fff7ed"/>
  <text x="540" y="629" font-family="Inter,Arial,sans-serif" font-size="14" font-weight="800" fill="#b45309">67%</text>
  <rect x="640" y="608" width="70" height="32" rx="8" fill="#fff7ed"/>
  <text x="660" y="629" font-family="Inter,Arial,sans-serif" font-size="13" font-weight="700" fill="#b45309">draft</text>
  <text x="780" y="629" font-family="Inter,Arial,sans-serif" font-size="14" fill="#617086">Intro depth · Use cases</text>

  <rect x="96" y="690" width="1248" height="142" rx="8" fill="#fff" stroke="#dce3ee"/>
  <text x="120" y="728" font-family="Inter,Arial,sans-serif" font-size="24" font-weight="800" fill="#18212f">Growth</text>
  <text x="120" y="762" font-family="Inter,Arial,sans-serif" font-size="15" fill="#617086">Keyword library, bulk tool generation, and automatic internal linking strategy.</text>
  <rect x="120" y="786" width="220" height="34" rx="8" fill="#f0fdfa" stroke="#99f6e4"/>
  <text x="142" y="808" font-family="Inter,Arial,sans-serif" font-size="14" font-weight="700" fill="#0f766e">Category + keyword tags</text>
</svg>
